<?xml version="1.0" encoding="utf-8"?>
<!-- Generator: Adobe Illustrator 22.0.1, SVG Export Plug-In . SVG Version: 6.00 Build 0)  -->
<svg version="1.1" id="Layer_1" xmlns="http://www.w3.org/2000/svg" xmlns:xlink="http://www.w3.org/1999/xlink" x="0px" y="0px"
	 viewBox="0 0 225 48" style="enable-background:new 0 0 225 48;" xml:space="preserve">
<style type="text/css">
	.st0{fill:#FF5D7D;}
	.st1{fill:#FFFFFF;}
</style>
<g>
	<path class="st0" d="M30.4,25.3l0.1,2l5.3-0.1l0.4,4.5l-5.6,0.1l0.2,6h-4.5V20.8l11.3-0.2v4.5L30.4,25.3z"/>
	<path class="st0" d="M46.7,26c0.5,0.3,1,0.6,1.4,1.1l-1.6,3.5c-0.4-0.6-1-0.9-1.8-0.9c-0.8,0-1.4,0.3-1.8,0.9
		c-0.4,0.6-0.6,1.5-0.7,2.8v4.3H38v-12h4.2v1c0.4-0.4,0.9-0.6,1.4-0.8s1-0.3,1.5-0.3C45.7,25.6,46.2,25.8,46.7,26z"/>
	<path class="st0" d="M49.6,24.6c-0.4-0.2-0.8-0.6-1-1c-0.3-0.4-0.4-0.8-0.4-1.3c0-0.7,0.3-1.3,0.8-1.8c0.5-0.5,1.2-0.7,2-0.7
		c0.7,0,1.3,0.2,1.7,0.7s0.7,1,0.7,1.7c0,0.8-0.2,1.5-0.7,2c-0.5,0.5-1.1,0.8-1.8,0.8C50.5,24.9,50,24.8,49.6,24.6z M48.4,25.8h4.7
		v11.9h-4.3L48.4,25.8z"/>
	<path class="st0" d="M64.2,27.3c1,1.1,1.6,2.6,1.6,4.5c0,0.3,0,0.6,0,0.7l-8,0.1c0.2,0.5,0.4,0.9,0.8,1.2c0.3,0.3,0.7,0.5,1.1,0.5
		c1.2,0.1,2.1-0.3,2.6-1.1l3.2,0.9c-0.2,0.7-0.6,1.3-1.1,1.9c-0.6,0.6-1.2,1-2,1.3c-0.8,0.3-1.6,0.5-2.4,0.5c-0.2,0-0.3,0-0.4,0
		c-1-0.1-2-0.4-2.9-1s-1.6-1.4-2.1-2.4c-0.5-1-0.8-2-0.8-3.2c0-0.2,0-0.4,0-0.5c0.1-1,0.4-1.9,0.9-2.7c0.5-0.8,1.3-1.4,2.2-1.8
		c0.9-0.4,1.9-0.7,3-0.7C61.7,25.7,63.2,26.2,64.2,27.3z M57.8,29.8l3.8,0c-0.1-0.4-0.2-0.8-0.5-1c-0.3-0.2-0.6-0.4-1-0.4
		C59,28.4,58.2,28.8,57.8,29.8z"/>
	<path class="st0" d="M77.1,26.7c0.6,0.7,1,1.8,0.9,3.1l-0.1,7.9h-4.1l0-5.3c0-1.1-0.1-1.9-0.4-2.3c-0.3-0.5-0.7-0.7-1.3-0.7
		c-0.5,0-0.9,0.1-1.2,0.4c-0.3,0.3-0.5,0.7-0.6,1.4l0,6.5h-4.1v-12l4-0.1v1.1c0.6-0.4,1.2-0.7,2-0.9c0.8-0.2,1.5-0.4,2.3-0.4
		C75.6,25.6,76.5,25.9,77.1,26.7z"/>
	<path class="st0" d="M91.7,20v17.8h-4.4v-1.3c-0.5,0.4-1.1,0.7-1.8,1c-0.7,0.3-1.4,0.4-2.1,0.4c-0.9,0-1.7-0.3-2.5-0.8
		c-0.8-0.6-1.4-1.3-1.8-2.3c-0.4-1-0.7-2-0.7-3.1c0-1,0.2-2,0.7-2.9c0.5-0.9,1.1-1.7,1.8-2.3c0.8-0.6,1.5-0.9,2.4-0.9
		c1.6,0,2.9,0.3,3.9,1.1l0-7L91.7,20z M86,33.7c0.4-0.2,0.7-0.5,0.9-0.9c0.2-0.4,0.3-0.8,0.3-1.2c0-0.6-0.2-1.2-0.7-1.7
		c-0.5-0.5-1.1-0.7-1.7-0.7c-0.6,0-1.2,0.2-1.6,0.7c-0.5,0.5-0.7,1-0.7,1.7c0,0.4,0.1,0.8,0.3,1.2c0.2,0.4,0.5,0.7,0.9,0.9
		c0.4,0.2,0.7,0.3,1.1,0.3C85.2,34.1,85.6,34,86,33.7z"/>
	<path class="st0" d="M100.8,29.9c-0.7-0.4-1.3-0.6-1.8-0.8c-0.5-0.2-1-0.3-1.5-0.3c-0.4,0-0.8,0.1-1.1,0.2
		c-0.3,0.1-0.4,0.3-0.4,0.5c0,0.4,0.5,0.6,1.6,0.6c1.5,0,2.7,0.3,3.6,0.9c0.9,0.6,1.3,1.4,1.3,2.5c0,0.8-0.3,1.6-0.8,2.2
		s-1.2,1.2-2,1.6c-0.8,0.4-1.8,0.6-2.8,0.6c-1,0-1.9-0.2-2.8-0.6c-0.9-0.4-1.6-0.9-2.1-1.5l2.3-2.6c0.4,0.3,0.8,0.6,1.2,0.7
		s0.9,0.3,1.4,0.3c0.5,0,0.9-0.1,1.2-0.2c0.3-0.2,0.5-0.3,0.5-0.6c0-0.2-0.1-0.3-0.3-0.4c-0.2-0.1-0.6-0.1-1.1-0.1
		c-0.1,0-0.2,0-0.4,0c-0.8,0-1.5-0.2-2.1-0.5c-0.7-0.3-1.2-0.8-1.6-1.4c-0.4-0.6-0.6-1.2-0.6-1.8c0-0.7,0.2-1.3,0.7-1.9
		c0.5-0.6,1.1-1.1,1.9-1.5c0.8-0.4,1.6-0.6,2.5-0.6c0.9,0,1.7,0.2,2.6,0.5c0.9,0.3,1.7,0.8,2.4,1.4L100.8,29.9z"/>
	<path class="st0" d="M111.5,37.7v-6.3c0-0.6-0.2-1.1-0.6-1.5c-0.4-0.4-0.9-0.5-1.5-0.5c-1.1,0-1.8,0.6-2.2,1.7l0.1,6.6l-4.2-0.1
		l-0.3-18h4.3l0.1,7.5c0.4-0.5,1-0.9,1.8-1.2s1.4-0.5,2.2-0.5c1.4,0,2.5,0.5,3.3,1.5c0.8,1,1.2,2.4,1.2,4.1l0,6.7H111.5z"/>
	<path class="st0" d="M117.2,24.6c-0.4-0.2-0.8-0.6-1-1c-0.3-0.4-0.4-0.8-0.4-1.3c0-0.7,0.3-1.3,0.8-1.8c0.5-0.5,1.2-0.7,2-0.7
		c0.7,0,1.3,0.2,1.7,0.7s0.7,1,0.7,1.7c0,0.8-0.2,1.5-0.7,2c-0.5,0.5-1.1,0.8-1.8,0.8C118.1,24.9,117.6,24.8,117.2,24.6z M116,25.8
		h4.7v11.9h-4.3L116,25.8z"/>
	<path class="st0" d="M132.6,27.2c0.8,1.1,1.2,2.4,1.2,4c0,1.2-0.2,2.2-0.6,3.2c-0.4,1-1,1.7-1.8,2.3c-0.8,0.6-1.7,0.8-2.7,0.8
		c-1.1,0-2-0.2-2.8-0.6l0.2,6.2h-4.5V25.7l3.7,0l0.2,1.2c0.5-0.4,1.1-0.8,1.8-1.1c0.7-0.3,1.4-0.4,1.9-0.4
		C130.7,25.6,131.8,26.1,132.6,27.2z M129.7,33.3c0.4-0.4,0.6-0.9,0.6-1.6c0-0.7-0.2-1.3-0.6-1.7c-0.4-0.4-0.9-0.6-1.6-0.6
		c-0.6,0-1.2,0.2-1.6,0.6c-0.4,0.4-0.6,0.9-0.6,1.5c0,0.6,0.2,1.2,0.7,1.7c0.5,0.5,1.1,0.7,1.7,0.7
		C128.8,33.9,129.3,33.7,129.7,33.3z"/>
	<path class="st0" d="M144.6,25.3l0.1,2l5.3-0.1l0.4,4.5l-5.6,0.1l0.2,6h-4.5V20.8l11.3-0.2v4.5L144.6,25.3z"/>
	<path class="st0" d="M162.6,27.3c1,1.1,1.6,2.6,1.6,4.5c0,0.3,0,0.6,0,0.7l-8,0.1c0.2,0.5,0.4,0.9,0.8,1.2c0.3,0.3,0.7,0.5,1.1,0.5
		c1.2,0.1,2.1-0.3,2.6-1.1l3.2,0.9c-0.2,0.7-0.6,1.3-1.1,1.9c-0.6,0.6-1.2,1-2,1.3c-0.8,0.3-1.6,0.5-2.4,0.5c-0.2,0-0.3,0-0.4,0
		c-1-0.1-2-0.4-2.9-1s-1.6-1.4-2.1-2.4c-0.5-1-0.8-2-0.8-3.2c0-0.2,0-0.4,0-0.5c0.1-1,0.4-1.9,0.9-2.7c0.5-0.8,1.3-1.4,2.2-1.8
		c0.9-0.4,1.9-0.7,3-0.7C160.1,25.7,161.5,26.2,162.6,27.3z M156.1,29.8l3.8,0c-0.1-0.4-0.2-0.8-0.5-1c-0.3-0.2-0.6-0.4-1-0.4
		C157.3,28.4,156.6,28.8,156.1,29.8z"/>
	<path class="st0" d="M173.5,29.9c-0.7-0.4-1.3-0.6-1.8-0.8c-0.5-0.2-1-0.3-1.5-0.3c-0.4,0-0.8,0.1-1.1,0.2
		c-0.3,0.1-0.4,0.3-0.4,0.5c0,0.4,0.5,0.6,1.6,0.6c1.5,0,2.7,0.3,3.6,0.9c0.9,0.6,1.3,1.4,1.3,2.5c0,0.8-0.3,1.6-0.8,2.2
		s-1.2,1.2-2,1.6c-0.8,0.4-1.8,0.6-2.8,0.6c-1,0-1.9-0.2-2.8-0.6c-0.9-0.4-1.6-0.9-2.1-1.5l2.3-2.6c0.4,0.3,0.8,0.6,1.2,0.7
		s0.9,0.3,1.4,0.3c0.5,0,0.9-0.1,1.2-0.2c0.3-0.2,0.5-0.3,0.5-0.6c0-0.2-0.1-0.3-0.3-0.4c-0.2-0.1-0.6-0.1-1.1-0.1
		c-0.1,0-0.2,0-0.4,0c-0.8,0-1.5-0.2-2.1-0.5c-0.7-0.3-1.2-0.8-1.6-1.4c-0.4-0.6-0.6-1.2-0.6-1.8c0-0.7,0.2-1.3,0.7-1.9
		c0.5-0.6,1.1-1.1,1.9-1.5c0.8-0.4,1.6-0.6,2.5-0.6c0.9,0,1.7,0.2,2.6,0.5c0.9,0.3,1.7,0.8,2.4,1.4L173.5,29.9z"/>
	<path class="st0" d="M185.2,35.9c-0.5,0.7-1.1,1.3-1.8,1.6c-0.7,0.4-1.6,0.5-2.6,0.5c-1.4,0-2.4-0.3-3.1-1c-0.7-0.7-1-1.8-1-3.4
		c0-0.4,0-1,0.1-1.7l0.3-2.6h-1.8l-0.2-3.6l2.4,0l0.3-2.6l4-0.2l-0.3,2.8l2.5,0l0.4,3.7h-3.4l-0.2,2c0,0.3,0,0.5,0,0.6
		c0,0.6,0.1,1.1,0.3,1.4c0.2,0.3,0.5,0.5,0.9,0.5c0.4,0,0.7-0.1,1-0.2c0.3-0.2,0.6-0.5,0.9-0.9L185.2,35.9z"/>
	<path class="st0" d="M186.6,24.6c-0.4-0.2-0.8-0.6-1-1c-0.3-0.4-0.4-0.8-0.4-1.3c0-0.7,0.3-1.3,0.8-1.8c0.5-0.5,1.2-0.7,2-0.7
		c0.7,0,1.3,0.2,1.7,0.7s0.7,1,0.7,1.7c0,0.8-0.2,1.5-0.7,2c-0.5,0.5-1.1,0.8-1.8,0.8C187.4,24.9,187,24.8,186.6,24.6z M185.4,25.8
		h4.7v11.9h-4.3L185.4,25.8z"/>
	<path class="st0" d="M201.8,25.8l-3.2,12h-5.5l-2.6-12h4.3l1.2,6.9l1.4-6.8H201.8z"/>
	<path class="st0" d="M209.9,37.7l0-1.1c-0.4,0.3-0.9,0.6-1.5,0.8c-0.6,0.2-1.2,0.3-1.8,0.3c-1,0-1.9-0.3-2.7-0.8
		c-0.8-0.5-1.5-1.3-2-2.2c-0.5-0.9-0.7-1.9-0.7-3.1c0-1.1,0.3-2.2,0.8-3.1c0.5-0.9,1.2-1.7,2.1-2.2c0.9-0.5,1.9-0.8,3-0.8
		c0.6,0,1.1,0.1,1.7,0.3c0.5,0.2,0.9,0.5,1.2,0.8v-1h3.7l0.5,11.9H209.9z M208.4,33.8c0.4-0.2,0.6-0.6,0.9-1
		c0.2-0.4,0.3-0.8,0.3-1.3c0-0.6-0.2-1.1-0.6-1.5c-0.4-0.4-0.9-0.6-1.5-0.6c-0.7,0-1.2,0.2-1.7,0.7c-0.5,0.5-0.7,1-0.7,1.7
		c0,0.4,0.1,0.8,0.3,1.1c0.2,0.4,0.5,0.7,0.9,0.9c0.4,0.2,0.7,0.3,1.1,0.3C207.7,34.1,208.1,34,208.4,33.8z"/>
	<path class="st0" d="M219.2,37.9c-1.4,0-2.5-0.4-3.3-1.3c-0.8-0.9-1.3-2.1-1.2-3.7l0-11.1l4.3-1.3l0,11.1c0,0.6,0.2,1.1,0.5,1.4
		s0.7,0.4,1.1,0.4c0.3,0,0.6-0.1,0.8-0.2l1,4C221.3,37.7,220.2,37.9,219.2,37.9z"/>
</g>
<path class="st0" d="M21.1,8l3.3-0.7c0.3-0.1,0.6,0.3,0.5,0.6L23.5,11c-0.1,0.1-0.1,0.3,0,0.4l1.7,3c0.2,0.3-0.1,0.7-0.4,0.6
	l-3.4-0.4c-0.1,0-0.3,0-0.4,0.1l-2.3,2.5c-0.2,0.3-0.7,0.1-0.7-0.2l-0.6-3.4c0-0.1-0.1-0.3-0.2-0.3L14,12c-0.3-0.1-0.3-0.6,0-0.8
	l3-1.6c0.1-0.1,0.2-0.2,0.2-0.3l0.3-3.4c0-0.4,0.5-0.5,0.7-0.3l2.5,2.3C20.8,8,21,8,21.1,8z"/>
<path class="st0" d="M6,16.6l1.4,0.2c0.1,0,0.2,0.2,0.1,0.3l-1,1c0,0-0.1,0.1,0,0.2l0.3,1.4c0,0.1-0.1,0.3-0.2,0.2l-1.2-0.6
	c-0.1,0-0.1,0-0.2,0l-1.2,0.7c-0.1,0.1-0.3,0-0.3-0.2l0.2-1.4c0-0.1,0-0.1-0.1-0.2l-1-0.9c-0.1-0.1-0.1-0.3,0.1-0.3l1.4-0.2
	c0.1,0,0.1,0,0.1-0.1l0.6-1.3c0.1-0.1,0.2-0.1,0.3,0l0.6,1.2C5.9,16.6,6,16.6,6,16.6z"/>
<path class="st0" d="M17.2,24.2l2.1,0.4c0.2,0,0.3,0.3,0.1,0.5l-1.6,1.5c-0.1,0.1-0.1,0.2-0.1,0.2l0.3,2.2c0,0.2-0.2,0.4-0.4,0.3
	l-1.9-1.1c-0.1,0-0.2,0-0.3,0l-1.9,1c-0.2,0.1-0.4-0.1-0.4-0.3l0.4-2.1c0-0.1,0-0.2-0.1-0.2L12,24.9c-0.2-0.2-0.1-0.4,0.2-0.5
	l2.2-0.3c0.1,0,0.2-0.1,0.2-0.1l1-1.9c0.1-0.2,0.4-0.2,0.5,0l0.9,2C17,24.1,17.1,24.2,17.2,24.2z"/>
</svg>
