<?xml version="1.0" encoding="utf-8"?>
<!-- Generator: Adobe Illustrator 22.0.1, SVG Export Plug-In . SVG Version: 6.00 Build 0)  -->
<svg version="1.1" id="Layer_1" xmlns="http://www.w3.org/2000/svg" xmlns:xlink="http://www.w3.org/1999/xlink" x="0px" y="0px"
	 viewBox="0 0 226 48" style="enable-background:new 0 0 226 48;" xml:space="preserve">
<style type="text/css">
	.st0{fill:#FF5D7D;}
	.st1{fill:#FFFFFF;}
</style>
<g>
	<g>
		<path class="st1" d="M30.9,25.3l0.1,2l5.3-0.1l0.4,4.5l-5.6,0.1l0.2,6h-4.5V20.8l11.3-0.2v4.5L30.9,25.3z"/>
		<path class="st1" d="M47.2,26c0.5,0.3,1,0.6,1.4,1.1L47,30.6c-0.4-0.6-1-0.9-1.8-0.9c-0.8,0-1.4,0.3-1.8,0.9
			c-0.4,0.6-0.6,1.5-0.7,2.8v4.3h-4.2v-12h4.2v1c0.4-0.4,0.9-0.6,1.4-0.8s1-0.3,1.5-0.3C46.2,25.6,46.7,25.8,47.2,26z"/>
		<path class="st1" d="M50.1,24.6c-0.4-0.2-0.8-0.6-1-1c-0.3-0.4-0.4-0.8-0.4-1.3c0-0.7,0.3-1.3,0.8-1.8c0.5-0.5,1.2-0.7,2-0.7
			c0.7,0,1.3,0.2,1.7,0.7s0.7,1,0.7,1.7c0,0.8-0.2,1.5-0.7,2c-0.5,0.5-1.1,0.8-1.8,0.8C51,24.9,50.5,24.8,50.1,24.6z M48.9,25.8h4.7
			v11.9h-4.3L48.9,25.8z"/>
		<path class="st1" d="M64.7,27.3c1,1.1,1.6,2.6,1.6,4.5c0,0.3,0,0.6,0,0.7l-8,0.1c0.2,0.5,0.4,0.9,0.8,1.2c0.3,0.3,0.7,0.5,1.1,0.5
			c1.2,0.1,2.1-0.3,2.6-1.1l3.2,0.9c-0.2,0.7-0.6,1.3-1.1,1.9c-0.6,0.6-1.2,1-2,1.3c-0.8,0.3-1.6,0.5-2.4,0.5c-0.2,0-0.3,0-0.4,0
			c-1-0.1-2-0.4-2.9-1s-1.6-1.4-2.1-2.4c-0.5-1-0.8-2-0.8-3.2c0-0.2,0-0.4,0-0.5c0.1-1,0.4-1.9,0.9-2.7c0.5-0.8,1.3-1.4,2.2-1.8
			c0.9-0.4,1.9-0.7,3-0.7C62.2,25.7,63.7,26.2,64.7,27.3z M58.3,29.8l3.8,0c-0.1-0.4-0.2-0.8-0.5-1c-0.3-0.2-0.6-0.4-1-0.4
			C59.5,28.4,58.7,28.8,58.3,29.8z"/>
		<path class="st1" d="M77.6,26.7c0.6,0.7,1,1.8,0.9,3.1l-0.1,7.9h-4.1l0-5.3c0-1.1-0.1-1.9-0.4-2.3c-0.3-0.5-0.7-0.7-1.3-0.7
			c-0.5,0-0.9,0.1-1.2,0.4c-0.3,0.3-0.5,0.7-0.6,1.4l0,6.5h-4.1v-12l4-0.1v1.1c0.6-0.4,1.2-0.7,2-0.9c0.8-0.2,1.5-0.4,2.3-0.4
			C76.1,25.6,77,25.9,77.6,26.7z"/>
		<path class="st1" d="M92.2,20v17.8h-4.4v-1.3c-0.5,0.4-1.1,0.7-1.8,1c-0.7,0.3-1.4,0.4-2.1,0.4c-0.9,0-1.7-0.3-2.5-0.8
			c-0.8-0.6-1.4-1.3-1.8-2.3c-0.4-1-0.7-2-0.7-3.1c0-1,0.2-2,0.7-2.9c0.5-0.9,1.1-1.7,1.8-2.3c0.8-0.6,1.5-0.9,2.4-0.9
			c1.6,0,2.9,0.3,3.9,1.1l0-7L92.2,20z M86.5,33.7c0.4-0.2,0.7-0.5,0.9-0.9c0.2-0.4,0.3-0.8,0.3-1.2c0-0.6-0.2-1.2-0.7-1.7
			c-0.5-0.5-1.1-0.7-1.7-0.7c-0.6,0-1.2,0.2-1.6,0.7c-0.5,0.5-0.7,1-0.7,1.7c0,0.4,0.1,0.8,0.3,1.2c0.2,0.4,0.5,0.7,0.9,0.9
			c0.4,0.2,0.7,0.3,1.1,0.3C85.7,34.1,86.1,34,86.5,33.7z"/>
		<path class="st1" d="M101.3,29.9c-0.7-0.4-1.3-0.6-1.8-0.8c-0.5-0.2-1-0.3-1.5-0.3c-0.4,0-0.8,0.1-1.1,0.2
			c-0.3,0.1-0.4,0.3-0.4,0.5c0,0.4,0.5,0.6,1.6,0.6c1.5,0,2.7,0.3,3.6,0.9c0.9,0.6,1.3,1.4,1.3,2.5c0,0.8-0.3,1.6-0.8,2.2
			s-1.2,1.2-2,1.6c-0.8,0.4-1.8,0.6-2.8,0.6c-1,0-1.9-0.2-2.8-0.6c-0.9-0.4-1.6-0.9-2.1-1.5l2.3-2.6c0.4,0.3,0.8,0.6,1.2,0.7
			s0.9,0.3,1.4,0.3c0.5,0,0.9-0.1,1.2-0.2c0.3-0.2,0.5-0.3,0.5-0.6c0-0.2-0.1-0.3-0.3-0.4c-0.2-0.1-0.6-0.1-1.1-0.1
			c-0.1,0-0.2,0-0.4,0c-0.8,0-1.5-0.2-2.1-0.5c-0.7-0.3-1.2-0.8-1.6-1.4c-0.4-0.6-0.6-1.2-0.6-1.8c0-0.7,0.2-1.3,0.7-1.9
			c0.5-0.6,1.1-1.1,1.9-1.5c0.8-0.4,1.6-0.6,2.5-0.6c0.9,0,1.7,0.2,2.6,0.5c0.9,0.3,1.7,0.8,2.4,1.4L101.3,29.9z"/>
		<path class="st1" d="M112,37.7v-6.3c0-0.6-0.2-1.1-0.6-1.5c-0.4-0.4-0.9-0.5-1.5-0.5c-1.1,0-1.8,0.6-2.2,1.7l0.1,6.6l-4.2-0.1
			l-0.3-18h4.3l0.1,7.5c0.4-0.5,1-0.9,1.8-1.2s1.4-0.5,2.2-0.5c1.4,0,2.5,0.5,3.3,1.5c0.8,1,1.2,2.4,1.2,4.1l0,6.7H112z"/>
		<path class="st1" d="M117.7,24.6c-0.4-0.2-0.8-0.6-1-1c-0.3-0.4-0.4-0.8-0.4-1.3c0-0.7,0.3-1.3,0.8-1.8c0.5-0.5,1.2-0.7,2-0.7
			c0.7,0,1.3,0.2,1.7,0.7s0.7,1,0.7,1.7c0,0.8-0.2,1.5-0.7,2c-0.5,0.5-1.1,0.8-1.8,0.8C118.6,24.9,118.1,24.8,117.7,24.6z
			 M116.5,25.8h4.7v11.9h-4.3L116.5,25.8z"/>
		<path class="st1" d="M133.1,27.2c0.8,1.1,1.2,2.4,1.2,4c0,1.2-0.2,2.2-0.6,3.2c-0.4,1-1,1.7-1.8,2.3c-0.8,0.6-1.7,0.8-2.7,0.8
			c-1.1,0-2-0.2-2.8-0.6l0.2,6.2h-4.5V25.7l3.7,0l0.2,1.2c0.5-0.4,1.1-0.8,1.8-1.1c0.7-0.3,1.4-0.4,1.9-0.4
			C131.2,25.6,132.3,26.1,133.1,27.2z M130.2,33.3c0.4-0.4,0.6-0.9,0.6-1.6c0-0.7-0.2-1.3-0.6-1.7c-0.4-0.4-0.9-0.6-1.6-0.6
			c-0.6,0-1.2,0.2-1.6,0.6c-0.4,0.4-0.6,0.9-0.6,1.5c0,0.6,0.2,1.2,0.7,1.7c0.5,0.5,1.1,0.7,1.7,0.7
			C129.3,33.9,129.8,33.7,130.2,33.3z"/>
		<path class="st1" d="M145.1,25.3l0.1,2l5.3-0.1l0.4,4.5l-5.6,0.1l0.2,6h-4.5V20.8l11.3-0.2v4.5L145.1,25.3z"/>
		<path class="st1" d="M163.1,27.3c1,1.1,1.6,2.6,1.6,4.5c0,0.3,0,0.6,0,0.7l-8,0.1c0.2,0.5,0.4,0.9,0.8,1.2
			c0.3,0.3,0.7,0.5,1.1,0.5c1.2,0.1,2.1-0.3,2.6-1.1l3.2,0.9c-0.2,0.7-0.6,1.3-1.1,1.9c-0.6,0.6-1.2,1-2,1.3
			c-0.8,0.3-1.6,0.5-2.4,0.5c-0.2,0-0.3,0-0.4,0c-1-0.1-2-0.4-2.9-1s-1.6-1.4-2.1-2.4c-0.5-1-0.8-2-0.8-3.2c0-0.2,0-0.4,0-0.5
			c0.1-1,0.4-1.9,0.9-2.7c0.5-0.8,1.3-1.4,2.2-1.8c0.9-0.4,1.9-0.7,3-0.7C160.6,25.7,162,26.2,163.1,27.3z M156.6,29.8l3.8,0
			c-0.1-0.4-0.2-0.8-0.5-1c-0.3-0.2-0.6-0.4-1-0.4C157.8,28.4,157.1,28.8,156.6,29.8z"/>
		<path class="st1" d="M174,29.9c-0.7-0.4-1.3-0.6-1.8-0.8c-0.5-0.2-1-0.3-1.5-0.3c-0.4,0-0.8,0.1-1.1,0.2c-0.3,0.1-0.4,0.3-0.4,0.5
			c0,0.4,0.5,0.6,1.6,0.6c1.5,0,2.7,0.3,3.6,0.9c0.9,0.6,1.3,1.4,1.3,2.5c0,0.8-0.3,1.6-0.8,2.2s-1.2,1.2-2,1.6
			c-0.8,0.4-1.8,0.6-2.8,0.6c-1,0-1.9-0.2-2.8-0.6c-0.9-0.4-1.6-0.9-2.1-1.5l2.3-2.6c0.4,0.3,0.8,0.6,1.2,0.7s0.9,0.3,1.4,0.3
			c0.5,0,0.9-0.1,1.2-0.2c0.3-0.2,0.5-0.3,0.5-0.6c0-0.2-0.1-0.3-0.3-0.4c-0.2-0.1-0.6-0.1-1.1-0.1c-0.1,0-0.2,0-0.4,0
			c-0.8,0-1.5-0.2-2.1-0.5c-0.7-0.3-1.2-0.8-1.6-1.4c-0.4-0.6-0.6-1.2-0.6-1.8c0-0.7,0.2-1.3,0.7-1.9c0.5-0.6,1.1-1.1,1.9-1.5
			c0.8-0.4,1.6-0.6,2.5-0.6c0.9,0,1.7,0.2,2.6,0.5c0.9,0.3,1.7,0.8,2.4,1.4L174,29.9z"/>
		<path class="st1" d="M185.7,35.9c-0.5,0.7-1.1,1.3-1.8,1.6c-0.7,0.4-1.6,0.5-2.6,0.5c-1.4,0-2.4-0.3-3.1-1c-0.7-0.7-1-1.8-1-3.4
			c0-0.4,0-1,0.1-1.7l0.3-2.6h-1.8l-0.2-3.6l2.4,0l0.3-2.6l4-0.2l-0.3,2.8l2.5,0l0.4,3.7h-3.4l-0.2,2c0,0.3,0,0.5,0,0.6
			c0,0.6,0.1,1.1,0.3,1.4c0.2,0.3,0.5,0.5,0.9,0.5c0.4,0,0.7-0.1,1-0.2c0.3-0.2,0.6-0.5,0.9-0.9L185.7,35.9z"/>
		<path class="st1" d="M187.1,24.6c-0.4-0.2-0.8-0.6-1-1c-0.3-0.4-0.4-0.8-0.4-1.3c0-0.7,0.3-1.3,0.8-1.8c0.5-0.5,1.2-0.7,2-0.7
			c0.7,0,1.3,0.2,1.7,0.7s0.7,1,0.7,1.7c0,0.8-0.2,1.5-0.7,2c-0.5,0.5-1.1,0.8-1.8,0.8C187.9,24.9,187.5,24.8,187.1,24.6z
			 M185.9,25.8h4.7v11.9h-4.3L185.9,25.8z"/>
		<path class="st1" d="M202.3,25.8l-3.2,12h-5.5l-2.6-12h4.3l1.2,6.9l1.4-6.8H202.3z"/>
		<path class="st1" d="M210.4,37.7l0-1.1c-0.4,0.3-0.9,0.6-1.5,0.8c-0.6,0.2-1.2,0.3-1.8,0.3c-1,0-1.9-0.3-2.7-0.8
			c-0.8-0.5-1.5-1.3-2-2.2c-0.5-0.9-0.7-1.9-0.7-3.1c0-1.1,0.3-2.2,0.8-3.1c0.5-0.9,1.2-1.7,2.1-2.2c0.9-0.5,1.9-0.8,3-0.8
			c0.6,0,1.1,0.1,1.7,0.3c0.5,0.2,0.9,0.5,1.2,0.8v-1h3.7l0.5,11.9H210.4z M208.9,33.8c0.4-0.2,0.6-0.6,0.9-1
			c0.2-0.4,0.3-0.8,0.3-1.3c0-0.6-0.2-1.1-0.6-1.5c-0.4-0.4-0.9-0.6-1.5-0.6c-0.7,0-1.2,0.2-1.7,0.7c-0.5,0.5-0.7,1-0.7,1.7
			c0,0.4,0.1,0.8,0.3,1.1c0.2,0.4,0.5,0.7,0.9,0.9c0.4,0.2,0.7,0.3,1.1,0.3C208.2,34.1,208.6,34,208.9,33.8z"/>
		<path class="st1" d="M219.7,37.9c-1.4,0-2.5-0.4-3.3-1.3c-0.8-0.9-1.3-2.1-1.2-3.7l0-11.1l4.3-1.3l0,11.1c0,0.6,0.2,1.1,0.5,1.4
			s0.7,0.4,1.1,0.4c0.3,0,0.6-0.1,0.8-0.2l1,4C221.8,37.7,220.7,37.9,219.7,37.9z"/>
	</g>
	<path class="st1" d="M21.6,8L25,7.3c0.3-0.1,0.6,0.3,0.5,0.6L24,11c-0.1,0.1-0.1,0.3,0,0.4l1.7,3c0.2,0.3-0.1,0.7-0.4,0.6l-3.4-0.4
		c-0.1,0-0.3,0-0.4,0.1l-2.3,2.5c-0.2,0.3-0.7,0.1-0.7-0.2l-0.6-3.4c0-0.1-0.1-0.3-0.2-0.3L14.5,12c-0.3-0.1-0.3-0.6,0-0.8l3-1.6
		c0.1-0.1,0.2-0.2,0.2-0.3L18,5.8c0-0.4,0.5-0.5,0.7-0.3l2.5,2.3C21.3,8,21.5,8,21.6,8z"/>
	<path class="st1" d="M6.5,16.6l1.4,0.2C8,16.8,8.1,17,8,17.1l-1,1c0,0-0.1,0.1,0,0.2l0.3,1.4c0,0.1-0.1,0.3-0.2,0.2l-1.2-0.6
		c-0.1,0-0.1,0-0.2,0l-1.2,0.7c-0.1,0.1-0.3,0-0.3-0.2l0.2-1.4c0-0.1,0-0.1-0.1-0.2l-1-0.9c-0.1-0.1-0.1-0.3,0.1-0.3l1.4-0.2
		c0.1,0,0.1,0,0.1-0.1l0.6-1.3c0.1-0.1,0.2-0.1,0.3,0l0.6,1.2C6.4,16.6,6.5,16.6,6.5,16.6z"/>
	<path class="st1" d="M17.7,24.2l2.1,0.4c0.2,0,0.3,0.3,0.1,0.5l-1.6,1.5c-0.1,0.1-0.1,0.2-0.1,0.2l0.3,2.2c0,0.2-0.2,0.4-0.4,0.3
		l-1.9-1.1c-0.1,0-0.2,0-0.3,0l-1.9,1c-0.2,0.1-0.4-0.1-0.4-0.3l0.4-2.1c0-0.1,0-0.2-0.1-0.2l-1.5-1.6c-0.2-0.2-0.1-0.4,0.2-0.5
		l2.2-0.3c0.1,0,0.2-0.1,0.2-0.1l1-1.9c0.1-0.2,0.4-0.2,0.5,0l0.9,2C17.5,24.1,17.6,24.2,17.7,24.2z"/>
</g>
</svg>
